<?xml version="1.0" encoding="UTF-8" standalone="no"?>
<!-- Created with Inkscape (http://www.inkscape.org/) -->

<svg
   xmlns:dc="http://purl.org/dc/elements/1.1/"
   xmlns:cc="http://creativecommons.org/ns#"
   xmlns:rdf="http://www.w3.org/1999/02/22-rdf-syntax-ns#"
   xmlns:svg="http://www.w3.org/2000/svg"
   xmlns="http://www.w3.org/2000/svg"
   xmlns:sodipodi="http://sodipodi.sourceforge.net/DTD/sodipodi-0.dtd"
   xmlns:inkscape="http://www.inkscape.org/namespaces/inkscape"
   version="1.1"
   id="svg3713"
   width="200"
   height="160"
   viewBox="0 0 200 160"
   sodipodi:docname="ship-blue.svg"
   inkscape:version="0.92.3 (2405546, 2018-03-11)">
  <metadata
     id="metadata3719">
    <rdf:RDF>
      <cc:Work
         rdf:about="">
        <dc:format>image/svg+xml</dc:format>
        <dc:type
           rdf:resource="http://purl.org/dc/dcmitype/StillImage" />
        <dc:title></dc:title>
      </cc:Work>
    </rdf:RDF>
  </metadata>
  <defs
     id="defs3717" />
  <sodipodi:namedview
     pagecolor="#ffffff"
     bordercolor="#666666"
     borderopacity="1"
     objecttolerance="10"
     gridtolerance="10"
     guidetolerance="10"
     inkscape:pageopacity="0"
     inkscape:pageshadow="2"
     inkscape:window-width="2560"
     inkscape:window-height="1017"
     id="namedview3715"
     showgrid="false"
     inkscape:zoom="2.6498137"
     inkscape:cx="160.37131"
     inkscape:cy="96.258767"
     inkscape:window-x="1912"
     inkscape:window-y="-8"
     inkscape:window-maximized="1"
     inkscape:current-layer="svg3713" />
  <g
     id="g4069"
     transform="translate(238.88472,18.491866)">
    <path
       style="fill:#618ab3"
       d="m -130.34242,137.99297 c 0,-1.375 0.22698,-1.9375 0.50439,-1.25 0.27741,0.6875 0.27741,1.8125 0,2.5 -0.27741,0.6875 -0.50439,0.125 -0.50439,-1.25 z m 22.59736,-0.5 c 0.26285,-1.375 0.65044,-2.5 0.86133,-2.5 0.21088,0 0.38342,1.125 0.38342,2.5 0,1.375 -0.3876,2.5 -0.86133,2.5 -0.47373,0 -0.64627,-1.125 -0.38342,-2.5 z m -40.44538,-16 c 0.006,-3.3 0.1923,-4.52944 0.41486,-2.73209 0.22256,1.79735 0.21797,4.49735 -0.0102,6 -0.22817,1.50265 -0.41027,0.0321 -0.40466,-3.26791 z m -49.05987,-2.21625 c 1.5125,-0.22913 3.9875,-0.22913 5.5,0 1.5125,0.22912 0.275,0.41659 -2.75,0.41659 -3.025,0 -4.2625,-0.18747 -2.75,-0.41659 z m 111.01375,-10e-4 c 1.52006,-0.22986 3.77006,-0.22371 5,0.0136 1.22994,0.23736 -0.0137,0.42542 -2.76375,0.41792 -2.75,-0.008 -3.75631,-0.20172 -2.23625,-0.43157 z m -116.26375,-1.34177 c 0,-0.58246 0.45,-0.7809 1,-0.44098 0.55,0.33992 1,0.81648 1,1.05902 0,0.24254 -0.45,0.44098 -1,0.44098 -0.55,0 -1,-0.47656 -1,-1.05902 z m 71.07895,-0.52431 c 0.048,-1.16495 0.28494,-1.4019 0.60416,-0.60417 0.28887,0.72187 0.25335,1.58437 -0.0789,1.91667 -0.3323,0.33229 -0.56864,-0.25834 -0.52522,-1.3125 z m 54.55942,0.0833 c 0.31659,-0.825 0.75246,-1.5 0.96862,-1.5 0.21615,0 0.39301,0.675 0.39301,1.5 0,0.825 -0.43588,1.5 -0.96862,1.5 -0.53273,0 -0.70959,-0.675 -0.39301,-1.5 z m -116.63837,-1.49997 c 0,-0.55 0.47656,-1 1.05902,-1 0.58246,0 0.7809,0.45 0.44098,1 -0.33992,0.55 -0.81648,1 -1.05902,1 -0.24254,0 -0.44098,-0.45 -0.44098,-1 z m 97.116,0.33179 c -0.0638,-0.64252 -0.40723,-1.99252 -0.76318,-3 -0.50214,-1.42127 -0.36907,-1.57546 0.59378,-0.68801 0.68253,0.62908 1.02596,1.97908 0.76318,3 -0.26278,1.02092 -0.52998,1.33052 -0.59378,0.68801 z m 9.884,-0.33179 c 0,-0.55 0.47656,-1 1.05902,-1 0.58246,0 0.7809,0.45 0.44098,1 -0.33992,0.55 -0.81648,1 -1.05902,1 -0.24254,0 -0.44098,-0.45 -0.44098,-1 z m -96,-1.44098 c 0,-0.79254 0.40803,-1.69316 0.90674,-2.00138 0.49871,-0.30822 0.67123,0.34022 0.38337,1.44098 -0.61061,2.33499 -1.29011,2.63015 -1.29011,0.5604 z m 107.15789,-2.55902 c 0,-1.375 0.22698,-1.9375 0.50439,-1.25 0.27741,0.6875 0.27741,1.8125 0,2.5 -0.27741,0.6875 -0.50439,0.125 -0.50439,-1.25 z m -100.12893,-2.96094 c -0.80907,-0.51167 -1.2107,-1.19066 -0.8925,-1.50885 0.3182,-0.3182 1.14776,0.10733 1.84348,0.94562 1.4426,1.73822 1.16599,1.90204 -0.95098,0.56323 z m 69.97104,0.49612 c 0,-0.25565 1.0125,-1.00432 2.25,-1.66372 2.04022,-1.08712 2.12204,-1.04378 0.87756,0.46482 -1.27783,1.54902 -3.12756,2.25809 -3.12756,1.1989 z m -123,-1.91274 c 0,-0.20765 0.7875,-0.99515 1.75,-1.75 1.58606,-1.24387 1.62143,-1.2085 0.37756,0.37756 -1.30637,1.66575 -2.12756,2.19548 -2.12756,1.37244 z m 24.07895,-1.20577 c 0.048,-1.16495 0.28494,-1.4019 0.60416,-0.60417 0.28887,0.72187 0.25335,1.58438 -0.0789,1.91667 -0.33229,0.33229 -0.56864,-0.25834 -0.52522,-1.3125 z m -18.89704,-5.51888 c 4.86117,-6.50552 5.08524,-6.89779 3.94006,-6.89779 -0.61708,0 -1.12197,0.525 -1.12197,1.16667 0,0.64166 -0.2709,0.89576 -0.602,0.56466 -0.3311,-0.3311 0.0556,-1.54092 0.85944,-2.68849 1.2711,-1.81474 1.62187,-1.89318 2.69323,-0.60227 1.0163,1.22456 0.48867,2.36553 -3.01597,6.52182 -4.72145,5.59937 -6.34204,6.73875 -2.75279,1.9354 z m 166.22308,-1.14779 -1.90499,-2.25 2.25,1.90499 c 2.11444,1.79022 2.70524,2.59501 1.90499,2.59501 -0.18976,0 -1.20226,-1.0125 -2.25,-2.25 z m -99.11898,-5.25 c 0.008,-2.75 0.20172,-3.75631 0.43157,-2.23625 0.22986,1.52006 0.22371,3.77006 -0.0137,5 -0.23736,1.22994 -0.42542,-0.0138 -0.41792,-2.76375 z m 32.78428,0.75 c -0.0387,-2.3375 0.37971,-4.25 0.92971,-4.25 1.19837,0 1.19837,3.71124 0,6.5 -0.66561,1.54896 -0.87528,1.04154 -0.92971,-2.25 z m -71.02919,0.35809 c -1.54764,-4.07058 -1.29208,-8.57455 0.52612,-9.27226 0.86197,-0.33077 2.03197,-0.13664 2.6,0.43139 1.57942,1.57942 1.22835,8.26578 -0.52612,10.02026 -1.41188,1.41187 -1.6571,1.30063 -2.6,-1.17939 z m -20.16866,-0.35809 c -1.24387,-1.58606 -1.2085,-1.62143 0.37756,-0.37756 1.66575,1.30637 2.19548,2.12756 1.37244,2.12756 -0.20765,0 -0.99515,-0.7875 -1.75,-1.75 z m 126.75339,0.2173 c -1.75022,-4.561 6.2e-4,-10.20836 2.82845,-9.12322 2.31577,0.88865 1.81163,9.99265 -0.57845,10.44602 -0.8933,0.16945 -1.9058,-0.42581 -2.25,-1.3228 z m 27.00393,-0.32392 c -1.4238,-1.57328 -1.4677,-2.03299 -0.28767,-3.01233 1.44032,-1.19535 2.23188,-0.6513 4.1741,2.86895 0.50056,0.90725 -0.0882,0.70966 -1.4898,-0.5 l -2.31741,-2 1.18069,2.25 c 1.43531,2.7352 0.98629,2.8754 -1.25991,0.39338 z m -147.31006,-7.34998 -2.15394,-3.03191 2.66712,-2.31118 c 1.46692,-1.27115 3.05146,-1.93564 3.52122,-1.47665 0.91802,0.89699 -0.0833,8.74096 -1.20429,9.43375 -0.37189,0.22984 -1.64544,-0.94646 -2.83011,-2.61401 z m 133.87843,-0.91095 c -1.01928,-4.01565 -0.71331,-6.88245 0.73454,-6.88245 0.39529,0 1.74839,1.09606 3.00691,2.43568 l 2.2882,2.43569 -2.18198,3.06431 c -1.20009,1.68538 -2.32161,3.06432 -2.49226,3.06432 -0.17064,0 -0.78058,-1.8529 -1.35541,-4.11755 z m -70.75194,-4.31756 c -0.68261,-3.638646 0.0739,-5.979556 1.62291,-5.022185 1.22864,0.759342 1.20699,8.457295 -0.0238,8.457295 -0.52507,0 -1.24468,-1.5458 -1.59912,-3.43511 z m 8.55381,0.60023 c 0,-3.646797 0.88415,-6.16512 2.16449,-6.16512 1.40887,0 0.54449,8.27584 -0.91449,8.75561 -0.81366,0.26757 -1.25,-0.63669 -1.25,-2.59049 z m 82.15789,0.83488 c 0,-1.375 0.22698,-1.9375 0.50439,-1.25 0.27741,0.6875 0.27741,1.8125 0,2.5 -0.27741,0.6875 -0.50439,0.125 -0.50439,-1.25 z m -118.12271,-2.93426 c -0.56935,-1.06384 -0.98343,-3.426341 -0.92018,-5.249999 l 0.115,-3.315741 0.74999,3.5 c 0.41249,1.925 1.08388,4.2875 1.49199,5.25 1.00731,2.37573 -0.14588,2.22784 -1.4368,-0.18426 z m 64.6558,0.68426 c 0.44496,-0.6875 1.34963,-3.5 2.01037,-6.25 l 1.20136,-5 -0.56569,5.5 c -0.62001,6.02822 -0.96084,7 -2.45505,7 -0.56481,0 -0.64793,-0.54399 -0.19099,-1.25 z m -61.69098,-0.12756 c 0,-0.20765 0.7875,-0.99515 1.75,-1.749995 1.58606,-1.243871 1.62143,-1.208501 0.37756,0.377555 -1.30637,1.66575 -2.12756,2.19548 -2.12756,1.37244 z M -53.3584,76.849959 c -0.19829,-6.487648 1.77895,-6.841775 5.8615,-1.049809 l 3.27163,4.64149 -3.88752,-3.421018 -3.88752,-3.421017 -0.60809,3.946682 -0.6081,3.946683 z m -124.94255,1.643011 c 0,-1.1 0.36029,-3.125 0.80064,-4.5 0.63397,-1.979583 0.80064,-2.083666 0.80064,-0.5 0,1.1 -0.36029,3.125 -0.80064,4.5 -0.63397,1.979583 -0.80064,2.08367 -0.80064,0.5 z m 76.80064,-1.5 c 0,-1.65 0.17393,-3 0.3865,-3 0.21258,0 0.58464,1.35 0.82681,3 0.24217,1.65 0.0682,3 -0.3865,3 -0.45475,0 -0.82681,-1.35 -0.82681,-3 z m -10.92105,0.416667 c 0.048,-1.164943 0.28494,-1.4019 0.60416,-0.604167 0.28887,0.721875 0.25335,1.584375 -0.0789,1.916667 -0.3323,0.332291 -0.56864,-0.258334 -0.52522,-1.3125 z M -230.82364,75.74297 c 1.11392,-1.2375 2.34762,-3.15 2.74157,-4.25 0.66669,-1.861597 0.78438,-1.878653 1.70067,-0.246473 0.77285,1.376659 0.38228,2.283276 -1.81725,4.218398 -3.51623,3.09354 -5.33247,3.285941 -2.62499,0.278075 z m 16.6332,-3.25 c 0.006,-3.3 0.1923,-4.529441 0.41486,-2.732091 0.22256,1.79735 0.21797,4.49735 -0.0102,6 -0.22818,1.50265 -0.41027,0.03209 -0.40466,-3.267909 z m 47.94231,2 c 0.0111,-2.2 0.21589,-2.982253 0.45508,-1.738341 0.23919,1.243913 0.23011,3.043913 -0.0202,4 -0.25029,0.956088 -0.446,-0.06166 -0.4349,-2.261659 z m 100.74782,-2.5 c 0,-3.157379 0.38309,-4.881273 1,-4.5 0.55,0.339919 1,2.364919 1,4.5 0,2.135081 -0.45,4.160081 -1,4.5 -0.61691,0.381273 -1,-1.342621 -1,-4.5 z m -25.3462,2 c 1.1806,-1.375 2.31726,-3.4 2.52591,-4.5 0.32192,-1.697084 0.47707,-1.752337 1.02439,-0.364813 0.43044,1.091208 -0.40986,2.588228 -2.52591,4.5 -2.5761,2.327416 -2.76826,2.39585 -1.02439,0.364813 z m -99.66089,-2.01325 c -0.77605,-1.450059 -0.76477,-2.499092 0.0403,-3.75 1.0395,-1.615123 1.07773,-1.609122 0.54586,0.08569 -0.31456,1.002343 -0.1077,2.689843 0.45968,3.75 0.56738,1.060159 0.8066,1.92756 0.5316,1.92756 -0.275,0 -0.98486,-0.905963 -1.57746,-2.01325 z m 77.08604,0.429917 c 0.048,-1.164943 0.28494,-1.4019 0.60416,-0.604167 0.28887,0.721875 0.25335,1.584375 -0.0789,1.916667 -0.3323,0.332291 -0.56864,-0.258334 -0.52522,-1.3125 z m 10.92105,-0.666667 c 0,-0.870833 -0.5625,-1.810307 -1.25,-2.087719 -0.97906,-0.395059 -0.97226,-0.521498 0.0314,-0.583334 1.42594,-0.08785 2.81771,2.655297 1.84216,3.630848 -0.34297,0.342946 -0.62356,-0.08896 -0.62356,-0.959795 z m -74,-1.916667 c 0,-0.458333 0.42344,-0.833333 0.94098,-0.833333 0.51754,0 1.17275,0.375 1.45601,0.833333 0.28327,0.458334 -0.14017,0.833334 -0.94098,0.833334 -0.80081,0 -1.45601,-0.375 -1.45601,-0.833334 z M -194.0141,64.93019 c -0.89669,-4.082604 -0.17984,-4.613209 1.22046,-0.903378 0.61399,1.626631 0.74278,3.188384 0.28621,3.470561 -0.45658,0.282177 -1.13458,-0.873055 -1.50667,-2.567183 z m 107.51379,2.06278 c -0.8759,-0.566051 -1.01043,-0.975746 -0.32332,-0.984687 0.64717,-0.0084 1.38247,-0.802813 1.63399,-1.765313 0.28137,-1.076662 0.50196,-0.691897 0.57333,1 0.13076,3.099993 0.16121,3.071714 -1.884,1.75 z m -54,-8 c 0,-3.777778 0.36667,-5 1.5,-5 1.56197,0 2.1167,5.229328 0.89301,8.418213 -1.21143,3.15693 -2.39301,1.469139 -2.39301,-3.418213 z m -72.884,-4.25 c -0.0638,-3.1625 0.23339,-5.75 0.66043,-5.75 0.42703,0 0.62822,1.9125 0.44709,4.25 -0.54281,7.005054 -0.98439,7.60312 -1.10752,1.5 z m 47.04189,3.25 c 0,-1.375 0.22698,-1.9375 0.50439,-1.25 0.27741,0.6875 0.27741,1.8125 0,2.5 -0.27741,0.6875 -0.50439,0.125 -0.50439,-1.25 z m 48.65461,1.316886 c 0.72187,-0.288871 1.58437,-0.253344 1.91667,0.07895 0.33229,0.332292 -0.25834,0.568641 -1.3125,0.52522 -1.16495,-0.04798 -1.4019,-0.284941 -0.60417,-0.604167 z m 31.85937,-4.207511 c -0.36953,-1.847656 -0.62257,-4.315625 -0.5623,-5.484375 0.0603,-1.16875 0.50805,-0.1 0.99508,2.375 0.48704,2.475 0.74008,4.942969 0.56231,5.484375 -0.17777,0.541406 -0.62555,-0.527344 -0.99509,-2.375 z M -193.17217,50.49297 c 0.004,-3.85 0.18518,-5.302463 0.40166,-3.227696 0.21647,2.074768 0.21284,5.224768 -0.008,7 -0.22088,1.775233 -0.398,0.0777 -0.39356,-3.772304 z m 126.98173,1 c 0.006,-3.3 0.1923,-4.529441 0.41486,-2.732091 0.22256,1.79735 0.21797,4.49735 -0.0102,6 -0.22818,1.50265 -0.41027,0.03209 -0.40466,-3.267909 z m -74.30987,-4.5 c 0,-0.55 0.45,-1 1,-1 0.55,0 1,0.45 1,1 0,0.55 -0.45,1 -1,1 -0.55,0 -1,-0.45 -1,-1 z m 27.15789,-1 c 0,-1.375 0.22698,-1.9375 0.50439,-1.25 0.27741,0.6875 0.27741,1.8125 0,2.5 -0.27741,0.6875 -0.50439,0.125 -0.50439,-1.25 z m -51.96294,-5.5 c 0.0204,-1.65 0.2445,-2.203936 0.49804,-1.230968 0.25354,0.972967 0.23687,2.322967 -0.037,3 -0.27393,0.677032 -0.48137,-0.119032 -0.46099,-1.769032 z m 24.47172,1.833333 c -1.2355,-1.235492 -0.67914,-6.11457 0.76022,-6.666903 1.48145,-0.568489 2.84788,0.663417 3.83973,3.461715 0.92471,2.608873 -2.68269,5.122456 -4.59995,3.205188 z m 61.41228,-0.916666 c 0.048,-1.164943 0.28494,-1.4019 0.60416,-0.604167 0.28887,0.721875 0.25335,1.584375 -0.0789,1.916667 -0.3323,0.332291 -0.56864,-0.258334 -0.52522,-1.3125 z M -195.50031,38.99297 c 0,-2.426999 -4.1168,-5 -8,-5 -3.85859,0 -4,-0.116667 -4,-3.3 0,-4.376729 1.53872,-5.7 6.62804,-5.7 h 4.22805 l 0.65387,5.75 c 0.35963,3.1625 0.87233,6.5375 1.13934,7.5 0.26701,0.9625 0.23015,1.75 -0.0819,1.75 -0.31207,0 -0.56739,-0.45 -0.56739,-1 z m 80.55518,-2.557551 c -0.60057,-3.201299 -0.98472,-3.593491 -3.12004,-3.1853 -2.78443,0.532278 -3.01505,-0.08182 -1.04335,-2.778273 1.94939,-2.665948 4.24531,-0.586328 5.12932,4.646076 0.85272,5.047226 -0.0382,6.262479 -0.96593,1.317497 z m 31.78551,0.557551 c 0.3476,-1.375 0.72756,-7.9 0.84435,-14.5 0.15088,-8.525883 0.31227,-9.901054 0.55747,-4.75 l 0.34511,7.25 3.70619,0.01531 c 4.90947,0.02028 5.89032,0.784026 6.7257,5.236979 l 0.70307,3.747711 h -4.53871 c -3.7469,0 -4.9257,0.479757 -6.75694,2.75 l -2.21824,2.75 z m -81.2773,-1.1849 c -0.18829,-5.004884 3.88315,-9.002749 5.32962,-5.233313 0.88159,2.29739 0.81038,2.418213 -1.42523,2.418213 -1.17286,0 -2.41467,0.951457 -2.93662,2.25 -0.65124,1.620212 -0.92213,1.778387 -0.96777,0.5651 z m 25.01556,-8.398433 c 0.048,-1.164943 0.28494,-1.4019 0.60416,-0.604167 0.28888,0.721875 0.25335,1.584375 -0.0789,1.916667 -0.33229,0.332291 -0.56864,-0.258334 -0.52522,-1.3125 z m -7.88647,-7.679685 c 0.93087,-0.755343 2.64508,-2.467668 3.80935,-3.805167 l 2.11687,-2.431815 -1.70097,2.790607 c -0.93553,1.534834 -2.64974,3.247159 -3.80935,3.805166 -1.88715,0.908101 -1.93079,0.870453 -0.4159,-0.358791 z m 13.73183,-1.486982 -2.42431,-2.75 2.75,2.424314 c 2.57029,2.265887 3.20859,3.075686 2.42431,3.075686 -0.17912,0 -1.41662,-1.2375 -2.75,-2.75 z m -62.77701,-3.877555 c -0.0935,-3.254488 -0.71148,-5.595785 -1.69176,-6.409342 -1.91707,-1.591026 -1.20373,-5.434155 2.20342,-11.871004 l 2.43069,-4.592099 -0.69274,5.5 c -0.38101,3.025 -1.00989,9.325 -1.39752,14 -0.53179,6.413557 -0.74095,7.241371 -0.85209,3.372445 z M -83.85957,3.24297 c -0.35555,-3.7125 -0.89036,-8.55 -1.18848,-10.75 l -0.54202,-4 1.41442,3.5 c 0.77794,1.925 2.14813,5.173047 3.04488,7.217881 1.80966,4.126503 2.19983,9.252042 0.63046,8.282119 -0.55,-0.339919 -1,0.08352 -1,0.940983 0,0.857459 -0.38538,1.559017 -0.8564,1.559017 -0.47102,0 -1.14731,-3.0375 -1.50286,-6.75 z m -109.48285,-14.25 c 0,-1.375 0.22698,-1.9375 0.50439,-1.25 0.27741,0.6875 0.27741,1.8125 0,2.5 -0.27741,0.6875 -0.50439,0.125 -0.50439,-1.25 z m -1.7529,-5.75 c 2.28323,-2.696747 3.62376,-2.887377 3.51606,-0.5 -0.0516,1.142994 -0.26096,1.295221 -0.60371,0.438869 -0.40499,-1.011877 -1.01463,-0.897757 -2.67105,0.5 l -2.14629,1.811131 z m 109.59501,-1.25 c -0.90129,-0.58246 -1.02463,-0.975486 -0.30902,-0.984687 0.65504,-0.0084 1.4691,0.434687 1.80902,0.984687 0.7673,1.241525 0.42112,1.241525 -1.5,0 z"
       id="path4075"
       inkscape:connector-curvature="0" />
    <path
       style="fill:#396394"
       d="m -163.12531,136.86797 c 0.34375,-1.71875 0.65923,-4.08125 0.70108,-5.25 0.0551,-1.53789 0.4226,-1.16531 1.3303,1.34851 l 1.25422,3.4735 0.80281,-3.4735 0.80281,-3.47351 0.74857,3 c 1.63635,6.55784 1.30474,7.5 -2.63979,7.5 -3.52667,0 -3.60805,-0.0848 -3,-3.125 z m 41.625,-1.375 c 0,-4.79259 1.92676,-6.39336 2.10638,-1.75 l 0.10638,2.75 1.08666,-2.75 c 1.60416,-4.05963 2.70058,-3.34914 2.70058,1.75 0,4.33333 -0.11111,4.5 -3,4.5 -2.88889,0 -3,-0.16667 -3,-4.5 z m 14.07895,-2.08333 c 0.048,-1.16495 0.28494,-1.4019 0.60416,-0.60417 0.28887,0.72187 0.25335,1.58437 -0.0789,1.91667 -0.3323,0.33229 -0.56864,-0.25834 -0.52522,-1.3125 z m -89.32895,-15.07895 c 0.74349,-0.30001 1.31071,-2.59795 1.39983,-5.67105 0.0836,-2.88211 0.33404,-3.95069 0.56642,-2.41667 0.4254,2.8081 2.71155,3.75502 3.62147,1.5 0.27741,-0.6875 0.53991,-0.0446 0.58333,1.42857 0.0434,1.47322 0.78609,3.38572 1.65038,4.25 1.42857,1.42857 1.08766,1.56425 -3.75,1.49248 -2.92679,-0.0434 -4.75893,-0.30592 -4.07143,-0.58333 z m 4.75,-2.33772 c 0.33992,-0.55 0.14148,-1 -0.44098,-1 -0.58246,0 -1.05902,0.45 -1.05902,1 0,0.55 0.19844,1 0.44098,1 0.24254,0 0.7191,-0.45 1.05902,-1 z m 102.25,2.33772 c 0.6875,-0.27741 1.25,-2.13189 1.25,-4.12105 0,-2.81297 0.26667,-3.35 1.2,-2.41667 1.76299,1.76299 2.8,1.46671 2.8,-0.8 0,-4.27149 1.82587,-1.72737 2.15349,3.00062 l 0.34651,5.00062 -4.5,-0.0796 c -2.475,-0.0438 -3.9375,-0.30654 -3.25,-0.58395 z m 4.75,-2.33772 c 0.33992,-0.55 0.14148,-1 -0.44098,-1 -0.58246,0 -1.05902,0.45 -1.05902,1 0,0.55 0.19844,1 0.44098,1 0.24254,0 0.7191,-0.45 1.05902,-1 z m -71.83333,1.33333 c -0.36667,-0.36666 -0.66667,-3.29166 -0.66667,-6.5 0,-4.51852 0.3381,-5.83333 1.5,-5.83333 1.17949,0 1.5,1.38889 1.5,6.5 0,5.9949 -0.62051,7.54616 -2.33333,5.83333 z m 32.94032,-0.91512 c -0.93667,-2.44093 -0.68957,-8.74577 0.40832,-10.41821 2.15312,-3.2799 3.90361,3.96917 2.3544,9.75 -0.70375,2.62604 -1.90037,2.91546 -2.76272,0.66821 z m 47.58796,-2.91821 c 0.0204,-1.65 0.2445,-2.20394 0.49804,-1.23097 0.25354,0.97297 0.23687,2.32297 -0.0371,3 -0.27393,0.67703 -0.48137,-0.11903 -0.46099,-1.76903 z m -126.96295,-2.5 c 0,-1.925 0.2058,-2.7125 0.45733,-1.75 0.25152,0.9625 0.25152,2.5375 0,3.5 -0.25153,0.9625 -0.45733,0.175 -0.45733,-1.75 z m 96.768,0.15182 c 0,-0.50521 0.94528,-1.16575 2.10062,-1.46788 1.15533,-0.30213 1.86151,-0.9362 1.56927,-1.40905 -0.29223,-0.47284 0.44999,-0.927 1.64939,-1.00922 2.15953,-0.14805 2.16128,-0.13478 0.18072,1.36569 -3.31067,2.50815 -5.5,3.51144 -5.5,2.52046 z m -70.13922,-2.11855 c -1.29843,-1.0817 -1.79828,-1.9817 -1.11078,-2 0.6875,-0.0183 1.25,0.41673 1.25,0.96673 0,0.55 0.47656,1 1.05902,1 0.58246,0 0.72107,-0.5625 0.30804,-1.25 -0.51028,-0.84936 -0.20868,-0.81011 0.94098,0.12244 1.82208,1.478 2.24547,3.12756 0.80274,3.12756 -0.48907,0 -1.95157,-0.88503 -3.25,-1.96673 z m 101.29711,-1.03327 c 0,-1.375 0.22698,-1.9375 0.50439,-1.25 0.27741,0.6875 0.27741,1.8125 0,2.5 -0.27741,0.6875 -0.50439,0.125 -0.50439,-1.25 z m -154.15789,-2.05902 c 0,-1.13246 0.43549,-1.78987 0.96775,-1.46091 0.53226,0.32895 2.54605,-2.53601 4.4751,-6.36658 1.92904,-3.83058 4.01535,-7.27864 4.63624,-7.66237 0.62089,-0.38373 2.31959,0.53307 3.7749,2.03733 2.32929,2.40764 2.38336,2.6013 0.4517,1.6179 -1.20686,-0.61441 -2.50062,-1.61273 -2.875,-2.21849 -0.47365,-0.76639 -0.93077,-0.69674 -1.5029,0.22898 -0.45222,0.73171 -0.40174,1.59024 0.11217,1.90786 0.81578,0.50418 -8.4345,13.9753 -9.59649,13.9753 -0.24391,0 -0.44347,-0.92656 -0.44347,-2.05902 z m 175.17481,-3.44094 c -2.24536,-3.00244 -4.61872,-6.48072 -5.27415,-7.72951 l -1.19168,-2.27053 2.31741,2 c 1.40164,1.20966 1.99036,1.40725 1.4898,0.5 -2.22463,-4.03211 -2.74401,-4.15591 -5.6709,-1.35178 -1.56491,1.49928 -2.84529,2.2764 -2.84529,1.72693 0,-0.94276 5.31469,-5.37515 6.44511,-5.37515 0.28936,0 1.93144,2.8125 3.64907,6.25 1.71764,3.4375 4.00796,7.21503 5.08961,8.3945 1.08164,1.17948 1.54067,2.40776 1.02006,2.72951 -0.52061,0.32176 -2.78368,-1.87153 -5.02904,-4.87397 z m -87.65682,0.58184 c -0.83005,-3.77918 -0.23111,-4.80018 2.68967,-4.585 1.90961,0.14069 2.29234,0.7394 2.29234,3.586 0,2.73882 -0.42835,3.47816 -2.15792,3.7246 -1.69443,0.24145 -2.301,-0.34397 -2.82409,-2.7256 z m -6.85132,-0.74855 c -0.36667,-0.36666 -0.65245,-3.17916 -0.63507,-6.25 l 0.0316,-5.58333 2.4684,2.80576 c 3.08949,3.51174 3.4945,9.69424 0.63507,9.69424 -1.00834,0 -2.13334,-0.3 -2.5,-0.66667 z m 14.87468,-1.20306 c -0.67017,-2.11152 1.53553,-8.44172 3.3273,-9.54909 1.50864,-0.93239 2.25332,3.2299 1.32623,7.41278 -0.87284,3.93811 -3.67359,5.22385 -4.65353,2.13631 z m -22.99718,-0.9911 c -0.74885,-2.35942 -0.61974,-13.97324 0.20721,-18.63917 0.92187,-5.201528 2.10145,-0.0208 2.16302,9.5 0.0569,8.79797 -1.08324,13.19413 -2.37023,9.13917 z m 1.17341,-7.87542 c -0.22985,-1.52006 -0.42406,-0.51375 -0.43157,2.23625 -0.007,2.75 0.18056,3.99369 0.41792,2.76375 0.23736,-1.22994 0.24351,-3.47994 0.0137,-5 z m 28.47737,7.23625 c 0.0204,-1.65 0.2445,-2.20394 0.49804,-1.23097 0.25354,0.97297 0.23687,2.32297 -0.037,3 -0.27393,0.67703 -0.48137,-0.11903 -0.46099,-1.76903 z m -33.116,-0.0833 c 0.048,-1.16495 0.28494,-1.4019 0.60416,-0.60417 0.28888,0.72187 0.25335,1.58437 -0.0789,1.91667 -0.33229,0.33229 -0.56864,-0.25834 -0.52522,-1.3125 z m 36.99134,0.8333 c 0.0387,-0.4125 0.45702,-1.65 0.92971,-2.75 0.76156,-1.77225 0.86743,-1.68684 0.92971,0.75 0.0387,1.5125 -0.37971,2.75 -0.92971,2.75 -0.55,0 -0.96837,-0.3375 -0.92971,-0.75 z m -43.79793,-4.25 c 0,-2.475 0.19502,-3.4875 0.43337,-2.25 0.23836,1.2375 0.23836,3.2625 0,4.5 -0.23835,1.2375 -0.43337,0.225 -0.43337,-2.25 z m 54.79793,0.25 c 0.0535,-2.85641 0.25493,-3.27723 0.84517,-1.76597 0.71447,1.82931 0.35884,5.51597 -0.53209,5.51597 -0.21085,0 -0.35174,-1.6875 -0.31308,-3.75 z m -84.1619,1.5 c -0.78467,-2.14128 -0.78076,-7.13915 0.007,-8.49131 0.88308,-1.51645 1.02833,-1.38888 1.05455,0.92621 0.0167,1.4767 0.46927,3.8392 1.00566,5.25 0.77371,2.03501 0.67038,2.5651 -0.5,2.5651 -0.81139,0 -1.51647,-0.1125 -1.56686,-0.25 z m 4.94161,-1.05924 c 1.99234,-2.41541 1.72103,-8.80004 -0.44113,-10.38105 -0.98512,-0.72034 -1.28064,-1.30971 -0.6567,-1.30971 1.89832,0 4.24783,4.25192 4.24783,7.68732 0,2.3405 -0.62581,3.57577 -2.25,4.44122 -2.02778,1.08049 -2.11667,1.03726 -0.9,-0.43778 z M -88.17103,97.242 c -3.34533,-2.19761 -1.56191,-12.24903 2.17335,-12.24903 2.41267,0 4.65496,4.51004 4.31229,8.67356 -0.26715,3.24598 -0.69416,3.86574 -2.81492,4.08549 -1.375,0.14248 -3.02682,-0.087 -3.67072,-0.51002 z m 4.47593,-5.51822 c 0.23691,-3.68799 -0.0654,-4.89342 -1.35093,-5.38673 -2.01323,-0.77255 -3.41816,1.19827 -3.43897,4.82413 -0.0225,3.92044 1.02079,5.97086 2.86052,5.62189 1.17285,-0.22248 1.70898,-1.62835 1.92938,-5.05929 z m -40.61026,2.76919 c 0.0204,-1.65 0.2445,-2.20394 0.49804,-1.23097 0.25354,0.97297 0.23687,2.32297 -0.037,3 -0.27393,0.67703 -0.48137,-0.11903 -0.46099,-1.76903 z m -47.17964,-0.75 c -0.008,-1.5125 0.43469,-2.75 0.98469,-2.75 1.26441,0 1.26441,2.04347 0,4 -0.75538,1.16887 -0.97276,0.89294 -0.98469,-1.25 z m 62.98469,-0.30902 c 0,-1.45136 0.43284,-2.2915 1,-1.94098 0.55,0.33992 1,1.49148 1,2.55902 0,1.06754 -0.45,1.94098 -1,1.94098 -0.55,0 -1,-1.15156 -1,-2.55902 z m -105.45186,-4.09438 c -4.0308,-4.15038 -4.38856,-5.3466 -1.59903,-5.3466 1.95257,0 7.05089,5.67208 7.05089,7.84439 0,2.06779 -1.83377,1.22764 -5.45186,-2.49779 z m 143.45186,2.88124 c 0,-1.51993 6.17387,-8.22784 7.5728,-8.22784 2.50247,0 1.53944,2.69427 -2.1076,5.89641 -3.44901,3.02827 -5.4652,3.88837 -5.4652,2.33143 z m -138.99562,-4.22231 -3.16368,-3.99447 2.60649,-0.99098 c 1.43358,-0.54505 2.93225,-1.87158 3.33039,-2.94786 0.70292,-1.900183 0.79356,-1.90431 3.12925,-0.142501 1.77943,1.342231 2.19881,2.303041 1.61161,3.692321 -0.73239,1.73282 -0.84106,1.69951 -1.40609,-0.43106 -0.74073,-2.79308 -1.45741,-2.85132 -4.60644,-0.37429 l -2.42356,1.90637 2.30558,3.12504 c 1.26808,1.71878 2.67169,2.79359 3.11915,2.38847 0.44747,-0.40511 0.48987,-0.17407 0.0942,0.51343 -1.00671,1.74937 -1.06556,1.71424 -4.59692,-2.74447 z m 135.73496,3.40048 c -0.40664,-0.40664 -0.70771,-1.45184 -0.66905,-2.32268 0.0531,-1.19557 0.25359,-1.11586 0.8188,0.32551 0.67984,1.7337 0.95444,1.61964 2.99295,-1.24318 1.23444,-1.7336 1.96442,-3.60508 1.62218,-4.15884 -0.34224,-0.55375 0.0793,-1.00682 0.93676,-1.00682 0.85746,0 1.55902,0.45661 1.55902,1.01469 0,1.63563 -6.45013,8.20184 -7.26066,7.39132 z m -67.84378,-2.03185 c -0.74213,-0.89422 -1.35973,-3.93172 -1.37245,-6.75 -0.016,-3.556623 -0.4055,-5.047682 -1.27311,-4.87416 -0.6875,0.1375 -1.25,-0.2 -1.25,-0.75 0,-0.55 0.84591,-1 1.87981,-1 1.58192,0 1.94834,0.947471 2.31229,5.97895 0.23786,3.28843 0.74945,6.29593 1.13685,6.68334 1.60898,1.60897 2.847,-1.78651 2.51949,-6.91008 -0.33636,-5.261946 -0.26178,-5.447461 2.15156,-5.351557 2.06675,0.08213 2.51616,0.619244 2.59323,3.099347 0.088,2.83046 0.0703,2.84459 -0.31336,0.25 -0.76023,-5.141908 -3.27987,-2.500194 -3.27987,3.43878 0,2.46919 0.32133,2.90189 1.74831,2.35431 1.09921,-0.42181 0.65848,0.46665 -1.18709,2.39301 -3.38296,3.53105 -3.83369,3.64545 -5.66566,1.43806 z m 18.10444,-1.37416 c 0,-1.65 0.45,-3 1,-3 0.55,0 1,1.35 1,3 0,1.65 -0.45,3 -1,3 -0.55,0 -1,-1.35 -1,-3 z m -57.30308,0.60687 c -0.4092,-1.04122 -0.50841,-2.12872 -0.22046,-2.41666 0.91206,-0.91206 1.71456,0.58256 1.33239,2.48152 -0.35024,1.74033 -0.40373,1.73721 -1.11193,-0.0649 z m 3.48353,-0.85687 c 0.17575,-1.2375 0.99455,-2.25 1.81955,-2.25 0.825,0 1.6438,1.0125 1.81955,2.25 0.24594,1.73169 -0.17321,2.25 -1.81955,2.25 -1.64634,0 -2.06549,-0.51831 -1.81955,-2.25 z m 72.15538,0.68278 c -0.33077,-0.86197 -0.0884,-2.08018 0.53853,-2.70714 1.40744,-1.40744 4.74172,1.4685 3.68495,3.1784 -0.9981,1.61495 -3.53139,1.33229 -4.22348,-0.47126 z m -99.25688,-1.01611 c 0.048,-1.16495 0.28494,-1.4019 0.60416,-0.60417 0.28888,0.72187 0.25335,1.58437 -0.0789,1.91667 -0.33229,0.33229 -0.56864,-0.25834 -0.52522,-1.3125 z m 106,0 c 0.048,-1.16495 0.28494,-1.4019 0.60416,-0.60417 0.28887,0.72187 0.25335,1.58437 -0.0789,1.91667 -0.3323,0.33229 -0.56864,-0.25834 -0.52522,-1.3125 z m 44,0 c 0.048,-1.16495 0.28494,-1.4019 0.60416,-0.60417 0.28887,0.72187 0.25335,1.58437 -0.0789,1.91667 -0.3323,0.33229 -0.56864,-0.25834 -0.52522,-1.3125 z m -169.84695,-2.41667 c 0,-1.925 0.2058,-2.7125 0.45733,-1.75 0.25152,0.9625 0.25152,2.5375 0,3.5 -0.25153,0.9625 -0.45733,0.175 -0.45733,-1.75 z M -75.9225,84.44698 c -0.7356,-2.93089 -0.23909,-4.02974 2.47788,-5.483816 1.54782,-0.828364 1.94431,-0.715462 1.94431,0.553639 0,0.915037 -0.47366,1.301467 -1.1118,0.907067 -1.56754,-0.968788 -2.91292,1.62244 -2.23818,4.31079 0.31174,1.24207 0.3418,2.25831 0.0668,2.25831 -0.275,0 -0.78756,-1.14569 -1.13901,-2.54599 z m 20.50779,-0.45401 c -0.0302,-0.825 0.38124,-2.175 0.9144,-3 1.18132,-1.827966 1.18132,-0.24909 0,2.5 -0.56668,1.31874 -0.87815,1.48906 -0.9144,0.5 z m -68.0856,-2.55902 c 0,-1.451364 0.43284,-2.291503 1,-1.94098 0.55,0.339919 1,1.49148 1,2.55902 0,1.06754 -0.45,1.94098 -1,1.94098 -0.55,0 -1,-1.15156 -1,-2.55902 z m -66.75,0.89674 c -1.4195,-0.57278 -1.71837,-3.33772 -0.36078,-3.33772 0.48907,0 1.95156,0.885029 3.25,1.96673 2.20896,1.84026 2.23217,1.96379 0.36078,1.92105 -1.1,-0.0251 -2.5625,-0.27265 -3.25,-0.55006 z m 15.14138,-0.41986 -3.10862,-0.90177 1.18422,-5.258046 c 0.65131,-2.891924 1.60019,-5.158428 2.10862,-5.036675 0.50842,0.121753 1.15742,2.371753 1.44221,5 0.2848,2.628247 0.87386,5.341131 1.30902,6.028631 0.43516,0.6875 0.65215,1.20942 0.48219,1.15981 -0.16996,-0.0496 -1.7079,-0.49598 -3.41764,-0.99195 z m 69.9874,-5.548891 c 0.52351,-3.502933 1.27496,-6.368969 1.66989,-6.368969 0.92425,0 1.92018,3.726382 1.93768,7.25 0.008,1.5125 0.53865,2.75 1.18032,2.75 1.83883,0 0.38232,0.98216 -2.81738,1.89982 l -2.92233,0.83812 z m 12.62122,5.806831 c 0,-1.07504 2.85599,-2.33415 4.34107,-1.91384 0.46258,0.13092 1.53294,-1.082449 2.37856,-2.69638 1.46126,-2.788919 1.6055,-2.841422 2.90893,-1.05887 2.34657,3.20912 1.74659,5.54623 -1.37856,5.3699 -1.5125,-0.0853 -3.9875,0.1813 -5.5,0.59252 -1.71772,0.46703 -2.75,0.35691 -2.75,-0.29333 z m -105.58904,-1.03172 c 0.29094,-0.47076 0.99996,-2.094674 1.57559,-3.608695 0.86922,-2.286239 1.298,-2.544118 2.53002,-1.521631 0.81589,0.677125 1.48343,2.301035 1.48343,3.608691 0,1.985255 -0.50474,2.377555 -3.05902,2.377555 -1.68246,0 -2.82097,-0.38517 -2.53002,-0.85592 z m 153.40558,-1.89408 c -1.4067,-1.5125 -3.32485,-3.960345 -4.26256,-5.439655 -1.01516,-1.601507 -2.28124,-2.4685 -3.12945,-2.143011 -1.05725,0.405704 -1.42453,-0.313359 -1.42453,-2.788932 0,-3.301864 0.0513,-3.265045 5.07132,3.643011 5.89284,8.109057 7.57179,9.917207 6.47992,6.978587 -1.59193,-4.284516 -1.63053,-4.904073 -0.15575,-2.5 3.17674,5.17845 1.50287,6.63882 -2.57895,2.25 z m -190.78964,1.43018 c -0.0293,-0.892881 4.57924,-7.569057 8.20301,-11.883334 l 2.27051,-2.703153 0.13785,7.203153 c 0.11805,6.168624 0.0403,6.526987 -0.54152,2.495184 -0.82872,-5.743042 -1.72539,-6.833374 -3.02696,-3.680718 -1.10331,2.672434 -7.00092,9.847868 -7.04289,8.568868 z m -1.99627,-1.18018 c 0,-0.55 0.43621,-1.675 0.96937,-2.5 0.53316,-0.825 0.96937,-1.05 0.96937,-0.5 0,0.55 -0.43621,1.675 -0.96937,2.5 -0.53316,0.825 -0.96937,1.05 -0.96937,0.5 z m 20.58544,-2.026786 c -1.91217,-1.912172 -1.97608,-2.849295 -0.51008,-7.479816 0.94989,-3.000329 1.32278,-7.112614 1.8031,-19.884707 0.14454,-3.843676 2.08407,-10.108691 3.12945,-10.108691 0.5288,0 0.96146,2.025 0.96146,4.5 0,2.475 -0.45,4.5 -1,4.5 -0.56962,0 -0.92985,2.474669 -0.837,5.75 l 0.16299,5.75 0.67401,-5.5 c 0.43477,-3.547789 0.73186,-4.367369 0.837,-2.309017 0.14535,2.845386 2.163,5.987103 2.163,3.368034 0,-1.336478 4.05341,-1.369408 7.49507,-0.06089 1.66773,0.63407 2.35418,1.436772 1.88202,2.200746 -0.5779,0.935057 -0.83231,0.935473 -1.14351,0.0019 -0.67338,-2.020148 -5.74127,-1.354467 -7.98806,1.049254 -1.60236,1.714278 -2.29864,4.254659 -2.92431,10.669446 -0.84717,8.685563 -1.89351,10.365394 -4.70514,7.553768 z m 3.10866,-7.705305 c -0.22256,-1.79735 -0.40925,-0.567909 -0.41486,2.732091 -0.006,3.3 0.17648,4.770559 0.40466,3.267909 0.22817,-1.50265 0.23276,-4.20265 0.0102,-6 z m 147.94194,8.565424 c -0.36667,-0.366666 -0.66667,-3.801051 -0.66667,-7.631966 0,-5.382391 -0.48871,-7.756042 -2.15046,-10.444821 -1.98138,-3.205933 -2.45315,-3.438923 -6,-2.96319 -5.13051,0.688146 -4.96416,-0.929246 0.18505,-1.799199 2.63103,-0.444511 4.54437,-0.258553 5.5,0.534547 1.16601,0.967705 1.46854,0.935779 1.48072,-0.156259 0.012,-1.077987 0.22329,-1.05062 0.98469,0.127555 0.68086,1.053551 0.94426,-0.285796 0.88501,-4.5 -0.06331,-4.502318 -0.28422,-5.375966 -0.88501,-3.5 -0.64753,2.021912 -0.80868,2.117529 -0.84269,0.5 -0.0571,-2.715016 1.55216,-10.315259 1.85269,-8.75 0.132,0.6875 0.30314,1.5875 0.38031,2 0.0772,0.4125 0.55341,1.402994 1.05831,2.201099 0.50489,0.798104 1.01357,6.027496 1.13039,11.620871 0.11682,5.593375 0.70934,11.098297 1.3167,12.23316 1.46339,2.734379 1.40827,8.490889 -0.0957,9.99487 -1.32773,1.327729 -3.10909,1.557582 -4.13333,0.533333 z m 2.33333,-6.333333 c 0,-2.135081 -0.45,-4.160081 -1,-4.5 -0.61691,-0.381273 -1,1.342621 -1,4.5 0,3.157379 0.38309,4.881273 1,4.5 0.55,-0.339919 1,-2.364919 1,-4.5 z m -49.92105,3.416667 c 0.048,-1.164943 0.28494,-1.4019 0.60416,-0.604167 0.28887,0.721875 0.25335,1.584375 -0.0789,1.916667 -0.3323,0.332291 -0.56864,-0.258334 -0.52522,-1.3125 z m -34.44303,-6.056238 c -1.62084,-11.825376 0.13061,-25.360429 3.28167,-25.360429 0.5608,0 0.81014,-0.5625 0.55408,-1.25 -0.61502,-1.651273 2.99849,-16.620159 4.33468,-17.956353 1.20029,-1.200289 3.75476,6.417146 4.80375,14.324769 0.35616,2.684871 0.98499,4.881584 1.39741,4.881584 2.02894,0 3.4818,7.024428 3.29972,15.953892 -0.22762,11.163701 -0.81405,14.046108 -2.85767,14.046108 -2.31904,0 -2.66824,-2.232382 -0.9809,-6.270747 0.91519,-2.190365 1.53134,-6.695628 1.53134,-11.197134 V 48.99297 h -6.4121 -6.4121 l -0.67907,4.019381 c -0.76991,4.557057 0.23159,13.572728 1.78382,16.05825 1.25764,2.013799 0.3044,4.922369 -1.61324,4.922369 -0.90206,0 -1.62031,-1.640455 -2.03139,-4.639571 z m 9.36408,-22.360429 c 0,-0.55 -0.45,-1 -1,-1 -0.55,0 -1,0.45 -1,1 0,0.55 0.45,1 1,1 0.55,0 1,-0.45 1,-1 z m 1.72186,-5.121855 c 1.93688,-1.936883 -0.83202,-7.15684 -3.29497,-6.211715 -1.43936,0.552333 -1.99572,5.431411 -0.76022,6.666903 1.00408,1.004081 2.79719,0.802807 4.05519,-0.455188 z M -138.8172,26.80547 c -0.31922,-0.797733 -0.55618,-0.560776 -0.60416,0.604167 -0.0434,1.054166 0.19292,1.644791 0.52522,1.3125 0.33229,-0.332292 0.36782,-1.194792 0.0789,-1.916667 z m -2.68311,44.1875 c 0,-1.646343 0.5183,-2.065491 2.25,-1.819551 1.2375,0.175753 2.25,0.994551 2.25,1.819551 0,0.825 -1.0125,1.643798 -2.25,1.819551 -1.7317,0.24594 -2.25,-0.173208 -2.25,-1.819551 z m -61,-1.940983 c 0,-1.961928 1.69082,-3.701529 2.65784,-2.734513 0.78525,0.785257 -0.65022,4.675496 -1.72523,4.675496 -0.51293,0 -0.93261,-0.873442 -0.93261,-1.940983 z m 88.80479,-2.768772 c -0.26221,-4.051819 -0.65403,-4.806225 -2.80479,-5.40032 -1.68582,-0.465666 -1.91085,-0.723028 -0.69098,-0.790245 0.99496,-0.05482 1.5309,-0.54968 1.19098,-1.09968 -0.33992,-0.55 0.14205,-1 1.07104,-1 1.41121,0 1.60533,-0.742864 1.18007,-4.5158 -0.27995,-2.48369 -0.11347,-4.760248 0.36995,-5.059017 0.48589,-0.3003 0.87894,4.625777 0.87894,11.0158 0,11.742741 -0.64086,15.41526 -1.19521,6.849262 z m 35.86188,4.043088 c -1.03737,-1.03737 -0.78384,-4.333333 0.33333,-4.333333 0.55,0 1,1.125 1,2.5 0,2.61806 -0.23099,2.935674 -1.33333,1.833333 z m -115.55918,-1.703815 c -0.70801,-0.853094 -1.47477,-3.481229 -1.70391,-5.840299 -0.48054,-4.947139 0.13435,-4.068468 1.07361,1.53419 0.53898,3.215004 0.87411,3.629926 2.10606,2.607499 1.98825,-1.650103 2.69768,-0.697357 1.1038,1.482393 -1.1602,1.586676 -1.42384,1.608774 -2.57956,0.216217 z m 105.50813,-0.1888 c -0.79873,-2.081473 -0.45609,-2.578192 1.11055,-1.609952 0.67597,0.417769 0.82775,1.272967 0.36021,2.029473 -0.62722,1.014854 -0.95636,0.920968 -1.47076,-0.419521 z m -77.34979,-7.940718 c -0.0186,-3.3 0.17197,-5.2125 0.4235,-4.25 0.25152,0.9625 1.12588,1.75 1.94301,1.75 0.81713,0 1.20758,0.45 0.86766,1 -0.86536,1.400181 0.84888,1.251116 2.3,-0.2 0.93333,-0.933333 1.2,-0.927778 1.2,0.025 0,0.67375 -1.32506,1.490011 -2.94457,1.813914 -2.21044,0.442087 -3.04569,1.246137 -3.35017,3.225 -0.22308,1.449847 -0.42082,-0.06391 -0.43943,-3.363914 z m 80.73417,1 c 0,-2.157379 0.40372,-3.368524 1,-3 0.55,0.339919 1,1.689919 1,3 0,1.310081 -0.45,2.660081 -1,3 -0.59628,0.368524 -1,-0.842621 -1,-3 z m -58.41658,1.63498 c -0.29403,-0.475761 0.0849,-2.838261 0.84212,-5.25 l 1.37672,-4.38498 0.0989,5.25 c 0.0895,4.752664 -0.91542,6.653928 -2.31771,4.38498 z m 5.14932,-3.38498 c 0.72424,-5.674473 0.98775,-5.732251 1.41891,-0.311112 0.2391,3.006225 -0.0334,4.561112 -0.79929,4.561112 -0.78553,0 -0.9863,-1.37703 -0.61962,-4.25 z m 17.26726,-1.75 c 0,-0.55 0.45,-1 1,-1 0.55,0 1,0.45 1,1 0,0.55 -0.45,1 -1,1 -0.55,0 -1,-0.45 -1,-1 z m -73.71399,-4.5 c 0.008,-2.75 0.20172,-3.756313 0.43157,-2.23625 0.22986,1.520062 0.22371,3.770062 -0.0137,5 -0.23736,1.229937 -0.42542,-0.01375 -0.41792,-2.76375 z m 108.78428,-4.083333 c 0.03865,-2.704167 0.45374,-5.816667 0.92242,-6.916667 0.52175,-1.224561 0.63926,0.520176 0.30309,4.5 -0.66472,7.869205 -1.32199,9.165319 -1.22551,2.416667 z m -71.87534,1.083333 c 0.0204,-1.65 0.2445,-2.203936 0.49804,-1.230968 0.25354,0.972967 0.23687,2.322967 -0.037,3 -0.27393,0.677032 -0.48137,-0.119032 -0.46099,-1.769032 z m -3.69495,-0.5 c 0.40685,-1.281869 0.1797,-2 -0.63261,-2 -0.98575,0 -1.00072,-0.266667 -0.0674,-1.2 1.73488,-1.73488 1.47808,-3.275676 -0.3,-1.8 -1.23219,1.022624 -1.5,0.944678 -1.5,-0.436572 0,-0.924804 0.45,-1.403347 1,-1.063428 0.55,0.339919 1.00689,0.02898 1.01531,-0.690983 0.0111,-0.951189 0.2803,-0.898983 0.98469,0.190983 1.31461,2.034216 1.26245,9 -0.0674,9 -0.61231,0 -0.79675,-0.852689 -0.43261,-2 z m 38.65789,0 c 0,-1.375 0.22698,-1.9375 0.50439,-1.25 0.27741,0.6875 0.27741,1.8125 0,2.5 -0.27741,0.6875 -0.50439,0.125 -0.50439,-1.25 z m 3.84211,-1.666667 c 0,-4.284787 0.94281,-3.936018 1.51171,0.559222 0.2163,1.709095 -0.0353,3.107445 -0.55922,3.107445 -0.52387,0 -0.95249,-1.65 -0.95249,-3.666667 z m -84.92105,1.083334 c 0.048,-1.164943 0.28494,-1.4019 0.60416,-0.604167 0.28887,0.721875 0.25335,1.584375 -0.0789,1.916667 -0.33229,0.332291 -0.56864,-0.258334 -0.52522,-1.3125 z m 9.15305,-4.416667 c 0,-1.925 0.2058,-2.7125 0.45733,-1.75 0.25152,0.9625 0.25152,2.5375 0,3.5 -0.25153,0.9625 -0.45733,0.175 -0.45733,-1.75 z m 28.96295,0.5 c 0.0204,-1.65 0.2445,-2.203936 0.49804,-1.230968 0.25354,0.972967 0.23687,2.322967 -0.037,3 -0.27393,0.677032 -0.48137,-0.119032 -0.46099,-1.769032 z m 48.45966,-0.590423 c -2.06182,-2.408022 -1.45976,-3.822679 0.82122,-1.929633 1.29023,1.070792 1.54197,0.900805 1.64017,-1.107499 0.0664,-1.358156 0.29607,-1.70449 0.53719,-0.810084 0.23165,0.859298 0.0563,2.548885 -0.38979,3.754638 l -0.81098,2.192277 z m -86.65461,-0.416301 c 0,-2.520361 1.91321,-5.493276 3.53518,-5.493276 1.91312,0 1.88894,1.623272 -0.0352,2.361626 -0.825,0.316583 -1.5,1.23817 -1.5,2.047972 0,0.809803 -0.45,1.750483 -1,2.090402 -0.55,0.339919 -1,-0.113107 -1,-1.006724 z M -76.44308,43.99297 c -0.11832,-1.375 -0.4421,-1.9375 -0.71951,-1.25 -0.84035,2.08261 -1.83772,1.40421 -1.83772,-1.25 0,-2.677868 2.20297,-3.43762 3.11047,-1.072726 0.30123,0.785001 0.34839,2.472501 0.10479,3.75 -0.43705,2.292049 -0.44574,2.289707 -0.65803,-0.177274 z m -50.45723,-0.6 c -0.35589,-0.927441 -0.42208,-1.911256 -0.14708,-2.186256 0.275,-0.275 0.79119,0.258815 1.14708,1.186256 0.35589,0.927441 0.42208,1.911256 0.14708,2.186256 -0.275,0.275 -0.79119,-0.258815 -1.14708,-1.186256 z m -73.6,-0.4 c 0,-0.55 0.45,-1 1,-1 0.55,0 1,0.45 1,1 0,0.55 -0.45,1 -1,1 -0.55,0 -1,-0.45 -1,-1 z m 48,0.05902 c 0,-0.517541 0.44485,-1.215913 0.98855,-1.551938 0.56686,-0.350339 0.7345,0.05106 0.39301,0.940983 -0.66479,1.732414 -1.38156,2.049384 -1.38156,0.610952 z m 31.07895,-4.64235 c 0.048,-1.164943 0.28494,-1.4019 0.60416,-0.604167 0.28887,0.721875 0.25335,1.584375 -0.0789,1.916667 -0.3323,0.332291 -0.56864,-0.258334 -0.52522,-1.3125 z m -75.51366,-0.311037 c -0.30402,-0.491902 -2.46807,-1.163865 -4.80902,-1.493253 -8.36011,-1.176324 -8.26467,-1.126828 -8.13052,-4.216305 0.0692,-1.592841 0.8433,-4.606557 1.72031,-6.697147 1.39245,-3.319284 1.8435,-3.667848 3.55851,-2.75 2.57345,1.37727 7.09543,1.350154 7.09543,-0.04255 0,-0.60149 -0.84425,-1.314394 -1.8761,-1.58423 -2.32863,-0.60895 -4.59545,-4.650929 -3.78816,-6.754689 0.33082,-0.862104 1.48906,-1.567461 2.57386,-1.567461 2.65675,0 3.76746,-2.041593 1.7308,-3.181367 -0.91811,-0.5138 -1.6404,-2.164651 -1.6404,-3.749264 0,-2.856142 3.89431,-14.1846 6.5238,-18.977579 1.41641,-2.581786 1.41957,-2.578281 0.82035,0.90821 -0.33085,1.925 -1.61952,5.576699 -2.86372,8.114886 -3.2754,6.681914 -3.89333,10.297551 -2.02489,11.848217 1.15343,0.957262 1.54446,3.276239 1.54446,9.159342 v 7.877555 h -4.3 c -5.16063,0 -6.7,1.309613 -6.7,5.7 0,3.116351 0.19844,3.3 3.56574,3.3 4.09258,0 6.94017,1.270029 7.78523,3.47222 0.63589,1.657107 0.10935,2.081604 -0.78568,0.633413 z m 35.55071,-1.41465 c -0.0764,-1.850044 -0.51014,-2.565426 -1.27051,-2.095491 -0.7153,0.442079 -0.88306,0.274316 -0.44098,-0.440984 0.39244,-0.634979 1.64207,-1.154508 2.77695,-1.154508 1.52532,0 1.79878,0.325978 1.04859,1.25 -0.55816,0.6875 -1.23606,2.15 -1.50644,3.25 -0.36763,1.495613 -0.52086,1.291584 -0.60761,-0.809017 z m 43.22809,-1.198785 c -0.99821,-2.152171 -0.9148,-2.492198 0.61132,-2.492198 1.34584,0 1.65329,0.596139 1.28934,2.5 -0.26285,1.375 -0.53794,2.496489 -0.61133,2.492198 -0.0734,-0.0043 -0.65358,-1.129291 -1.28933,-2.5 z m 37.28775,0.362116 c 1.15594,-1.277295 3.06483,-1.854314 6.13444,-1.854314 h 4.4563 l -0.70307,-3.747708 c -0.83421,-4.446688 -1.81788,-5.216654 -6.69051,-5.236979 l -3.67099,-0.01531 -0.32901,-7.390034 c -0.37536,-8.431467 -0.0722,-10.878328 1.24668,-10.063192 1.78203,1.101355 0.88171,-5.096325 -1.47584,-10.159496 -1.30935,-2.811997 -2.66963,-6.636997 -3.02286,-8.5 -0.634,-3.343821 -0.624,-3.355204 0.77935,-0.887278 0.78187,1.375 2.64386,5.95639 4.13776,10.180866 2.53981,7.182167 2.61195,7.829656 1.11104,9.972506 -2.2817,3.257583 -2.03609,5.032268 0.64487,4.659486 1.8069,-0.251245 2.3124,0.229611 2.56686,2.441708 0.3127,2.718344 -1.66065,5.745434 -3.74543,5.745434 -0.58929,0 -1.07143,0.736166 -1.07143,1.635924 0,1.362325 0.74871,1.533301 4.47676,1.022316 3.83709,-0.525932 4.63246,-0.32267 5.56648,1.422546 1.75091,3.271623 1.72268,10.12833 -0.0432,10.499368 -0.825,0.173341 -3.87291,0.72316 -6.77314,1.22182 -5.09671,0.876318 -5.217,0.84461 -3.59502,-0.94766 z m -4.07297,-52.386117 c -1.06762,-0.807508 -1.46022,-1.468197 -0.87244,-1.468197 0.58777,0 1.62888,0.675 2.31357,1.5 1.5572,1.876316 1.06734,1.865506 -1.44113,-0.0318 z"
       id="path4073"
       inkscape:connector-curvature="0" />
    <path
       style="fill:#1d3359"
       d="m -170.87002,137.74297 c -0.33164,-1.2375 -0.60913,-5.76708 -0.61664,-10.06574 -0.007,-4.29866 -0.4787,-8.68469 -1.04709,-9.74674 -0.91055,-1.70138 -8.85107,-6.58889 -9.3536,-5.75728 -0.10627,0.17587 -0.63446,1.66539 -1.17376,3.31004 -0.53929,1.64466 -1.70411,3.12964 -2.58849,3.29995 -2.28565,0.44018 -4.83688,-2.464 -4.92966,-5.61166 -0.0434,-1.47321 -0.30592,-2.11607 -0.58333,-1.42857 -0.90992,2.25502 -3.19607,1.3081 -3.62147,-1.5 -0.23149,-1.52816 -0.48316,-0.44734 -0.56642,2.43261 -0.1235,4.27185 -0.50973,5.29684 -2.19782,5.83262 -3.20208,1.0163 -4.63072,-1.03536 -5.21608,-7.49078 -0.70511,-7.77611 -3.43293,-13.41122 -6.71615,-13.87417 -1.36413,-0.19235 -3.86966,-1.95706 -5.56786,-3.92159 -1.90102,-2.19915 -3.55152,-3.28517 -4.29468,-2.82587 -0.66387,0.41029 -2.83987,3.97501 -4.83556,7.92158 -1.99568,3.94658 -3.83001,6.58902 -4.07627,5.87208 -0.24626,-0.71693 0.72153,-5.05383 2.15066,-9.63754 2.3877,-7.65819 2.52605,-9.04798 1.70605,-17.138004 -0.4908,-4.842184 -0.65435,-9.505288 -0.36345,-10.362454 0.75766,-2.232518 -5.13134,4.57585 -8.8482,10.22954 -1.73127,2.633413 -3.32078,4.615008 -3.53224,4.403538 -0.68692,-0.68692 2.64461,-7.713836 8.30843,-17.524306 3.12415,-5.411422 6.85523,-13.76178 8.5496,-19.134433 8.25774,-26.184448 11.32395,-34.499511 16.7904,-45.532821 3.26997,-6.6 7.11388,-13.35 8.54202,-15 3.22726,-3.72861 2.93983,-2.317244 -1.98194,9.731795 -3.90512,9.560196 -4.47376,14.161233 -1.92634,15.586838 2.03666,1.139774 0.92595,3.181367 -1.7308,3.181367 -1.0848,0 -2.24304,0.705357 -2.57386,1.567461 -0.80729,2.10376 1.45953,6.145739 3.78816,6.754689 1.03185,0.269836 1.8761,0.98274 1.8761,1.58423 0,1.392702 -4.52198,1.419818 -7.09543,0.04255 -1.71501,-0.917848 -2.16606,-0.569284 -3.55851,2.75 -0.87701,2.09059 -1.65115,5.104306 -1.72031,6.697147 -0.13425,3.091932 -0.23193,3.041495 8.17307,4.220363 5.75717,0.80749 7.32618,3.333607 7.32618,11.795239 0,3.614576 -0.28613,8.48814 -0.63584,10.83014 -0.71964,4.819416 0.86596,10.274775 2.66348,9.163849 0.73851,-0.45643 0.88445,-0.274691 0.40384,0.50294 -1.69094,2.736005 11.1009,11.794924 19.09973,13.526034 4.66646,1.00992 7.34032,-2.21596 7.3548,-8.873201 0.0208,-9.558975 0.88753,-12.291147 4.10326,-12.934292 3.57614,-0.715228 3.76758,-2.076079 0.3201,-2.275402 -1.41032,-0.08154 -2.73617,-0.320211 -2.94634,-0.530379 -1.14186,-1.141864 -1.35326,-7.497134 -0.4788,-14.394197 1.02992,-8.123179 2.90719,-12.300664 3.09045,-6.877169 0.0899,2.660136 0.16358,2.723119 0.75,0.640983 0.92135,-3.271333 2.56034,-3.097067 3.1549,0.335446 l 0.50458,2.913037 2.23445,-2.840643 c 1.22894,-1.562356 3.08171,-5.598735 4.11726,-8.969735 1.3475,-4.38648 3.16193,-7.4796 6.38169,-10.87909 2.47437,-2.6125 4.97034,-4.75 5.54659,-4.75 0.57625,0 1.95887,1.4625 3.07249,3.25 1.11362,1.7875 2.89767,3.783425 3.96454,4.43539 1.14039,0.69689 2.79763,3.993693 4.02144,8 3.11841,10.208502 7.15238,14.897977 7.15238,8.31461 0,-3.531901 1.68005,-3.956323 2.96884,-0.75 0.90142,2.24261 0.9047,2.241789 0.99818,-0.25 0.0782,-2.083585 0.25337,-2.226746 1.05181,-0.859484 0.5269,0.902284 1.21311,6.35579 1.52491,12.118903 0.55568,10.271072 0.52199,10.490129 -1.70264,11.071884 -1.28465,0.335942 -2.58694,0.07993 -3.00095,-0.589942 -0.40227,-0.650892 -1.03444,-0.880401 -1.40482,-0.51002 -0.92016,0.920156 1.76876,3.469564 4.13539,3.920836 1.68258,0.320837 1.99715,1.499935 2.46007,9.221132 0.4663,7.777684 0.82036,9.087739 2.91433,10.783331 2.71826,2.20111 6.10744,1.83832 12.34994,-1.321989 4.75366,-2.406572 11.70494,-8.613176 11.70494,-10.451013 0,-0.761001 0.3375,-1.387149 0.75,-1.39144 1.00164,-0.01042 3.25,-4.944746 3.25,-7.132546 0,-0.95789 -0.50538,-2.053963 -1.12308,-2.435717 -1.40109,-0.865926 -0.63901,-16.131435 0.9539,-19.107817 0.74169,-1.385867 2.48148,-2.236562 5.38255,-2.631885 8.46536,-1.153553 8.30354,-1.043852 8.10311,-5.493269 -0.30721,-6.819549 -1.60612,-8.250069 -6.83972,-7.532724 -3.72805,0.510985 -4.47676,0.340009 -4.47676,-1.022316 0,-0.899758 0.48214,-1.635924 1.07143,-1.635924 2.08478,0 4.05813,-3.02709 3.74543,-5.745434 -0.25446,-2.212097 -0.75996,-2.692953 -2.56686,-2.441708 -2.66853,0.371054 -2.92842,-1.399266 -0.67724,-4.613268 1.43534,-2.049247 1.42358,-2.702096 -0.13464,-7.472506 -0.93907,-2.874896 -2.96858,-8.039584 -4.51004,-11.477084 -2.90806,-6.485074 -2.51851,-8.08736 0.90736,-3.732079 6.13695,7.801873 16.05379,31.13512 21.71266,51.08755 2.405,8.479703 5.39507,16.147137 8.7332,22.394529 7.80942,14.615494 10.94693,21.10511 10.44586,21.60617 -0.25165,0.25166 -2.99322,-3.040902 -6.09236,-7.316801 l -5.6348,-7.774362 v 6.808238 c 0,3.744531 -0.47711,7.699735 -1.06025,8.789335 -0.81172,1.51672 -0.44131,4.13836 1.58021,11.18426 1.45226,5.06174 2.87758,10.04701 3.16739,11.07839 1.10086,3.91782 -1.81893,0.31355 -5.22482,-6.44963 -1.91822,-3.80908 -3.72524,-6.9256 -4.01559,-6.9256 -1.28798,0 -6.44694,4.49854 -6.44694,5.62164 0,0.68503 -1.193,1.38791 -2.6511,1.56194 -3.92892,0.46893 -6.19948,4.38743 -7.57385,13.07081 -0.92469,5.84233 -1.66251,7.8925 -2.99224,8.31454 -2.83232,0.89895 -3.78281,-0.38952 -3.78281,-5.12795 0,-2.44254 -0.45,-4.44098 -1,-4.44098 -0.55,0 -1,0.9 -1,2 0,2.26671 -1.03701,2.56299 -2.8,0.8 -0.93333,-0.93333 -1.2,-0.39275 -1.2,2.43261 0,2.6626 -0.49644,3.79018 -1.85912,4.22268 -2.8627,0.90858 -5.14088,-0.42231 -5.14088,-3.00326 0,-3.5936 -1.65555,-3.84394 -6.5299,-0.98737 l -4.4701,2.61965 -0.0741,6.70784 c -0.0408,3.68932 -0.37827,8.73285 -0.75,11.20785 -0.65145,4.33733 -0.81144,4.51122 -4.42588,4.81037 l -3.75,0.31036 v -4.56036 c 0,-5.15393 -1.0905,-5.88496 -2.70058,-1.81037 l -1.08666,2.75 -0.10638,-2.75 c -0.17964,-4.64336 -2.1064,-3.04259 -2.1064,1.75 0,4.46149 -0.0294,4.5 -3.44098,4.5 -1.89254,0 -3.76441,-0.52331 -4.1597,-1.1629 -0.39529,-0.6396 -0.98435,-6.13725 -1.30902,-12.217 l -0.5903,-11.0541 -8,0.14884 c -4.4,0.0819 -8.3375,0.17952 -8.75,0.217 -0.4125,0.0375 -0.75615,4.45566 -0.76366,9.81816 -0.0182,13.02505 -0.40182,14.25 -4.46233,14.25 -3.11894,0 -3.28068,-0.20041 -4.23696,-5.25 l -0.99423,-5.25 -0.81611,3.47351 -0.81611,3.4735 -1.16865,-3.47092 -1.16865,-3.47092 -0.69609,5.24742 c -0.68274,5.14671 -0.76036,5.24741 -4.04502,5.24741 -2.62764,0 -3.4788,-0.48461 -3.9519,-2.25 z m 16.36971,-26.25 c 0,-5.11111 -0.32051,-6.5 -1.5,-6.5 -1.1619,0 -1.5,1.31481 -1.5,5.83333 0,3.20834 0.3,6.13334 0.66667,6.5 1.71282,1.71283 2.33333,0.16157 2.33333,-5.83333 z m 33.36971,4.25 c 0.90739,-3.38591 0.72271,-8.06256 -0.38502,-9.75 -0.87528,-1.33333 -1.0941,-1.33333 -1.96938,0 -0.54158,0.825 -0.99158,3.1507 -1,5.16821 -0.0263,6.29324 2.11276,9.21495 3.3544,4.58179 z m 20.13029,-7.14492 c 1.98405,-1.52918 1.98262,-1.54173 -0.17857,-1.57328 -2.22467,-0.0325 -5.32143,2.33883 -5.32143,4.07481 0,1.0575 2.15253,0.0785 5.5,-2.50153 z m -71.5,1.59492 c 0,-1.4968 -2.39354,-3.2001 -4.45,-3.16673 -1.96501,0.0319 -1.95213,0.11481 0.31078,2 2.46771,2.0558 4.13922,2.52696 4.13922,1.16673 z m 35.5,-8.11712 c 0,-2.8466 -0.38273,-3.44531 -2.29234,-3.586 -2.92078,-0.21518 -3.51972,0.80582 -2.68967,4.585 0.52309,2.38163 1.12966,2.96705 2.82409,2.7256 1.72957,-0.24644 2.15792,-0.98578 2.15792,-3.7246 z m -7.5,-2.52712 c 0,-2.23764 -0.86473,-4.42715 -2.4684,-6.25 l -2.4684,-2.80576 -0.0316,5.58333 c -0.0343,6.06063 0.35371,6.91667 3.13507,6.91667 1.42291,0 1.83333,-0.77104 1.83333,-3.44424 z m 15.19488,-0.5618 c 0.92709,-4.18288 0.18241,-8.34517 -1.32623,-7.41278 -1.79177,1.10737 -3.99747,7.43757 -3.3273,9.54909 0.97994,3.08754 3.78069,1.8018 4.65353,-2.13631 z m -25.28048,-7.99396 c -0.0616,-9.52084 -1.24115,-14.701528 -2.16302,-9.5 -0.82695,4.66593 -0.95606,16.27975 -0.20721,18.63917 1.28699,4.05496 2.42713,-0.3412 2.37023,-9.13917 z m 27.77859,7.26903 c -0.25354,-0.97297 -0.47766,-0.41903 -0.49804,1.23097 -0.0204,1.65 0.18706,2.44606 0.46099,1.76903 0.27392,-0.67703 0.29059,-2.02703 0.037,-3 z m -33.00988,0.54347 c -0.31922,-0.79773 -0.55618,-0.56078 -0.60416,0.60417 -0.0434,1.05416 0.19292,1.64479 0.52522,1.3125 0.33229,-0.3323 0.36781,-1.1948 0.0789,-1.91667 z m 38.31689,-8.25348 c 0,-5.74254 -0.38733,-10.680368 -0.86073,-10.972947 -0.99223,-0.613231 -2.15145,14.899377 -1.40514,18.803447 1.12664,5.89364 2.26587,1.95664 2.26587,-7.8305 z m -45.29427,3.19098 c -0.23835,-1.2375 -0.43337,-0.225 -0.43337,2.25 0,2.475 0.19502,3.4875 0.43337,2.25 0.23836,-1.2375 0.23836,-3.2625 0,-4.5 z m 55.52282,4.48403 c 0.25399,-0.97128 0.11311,-2.65878 -0.31309,-3.75 -0.59024,-1.51126 -0.79164,-1.09044 -0.84517,1.76597 -0.0753,4.0182 0.40925,4.84824 1.15826,1.98403 z m -79.16281,-1.26921 c 2.60274,-1.39295 2.56799,-6.99406 -0.0627,-10.10404 l -1.99694,-2.36078 -2.56502,2.8778 c -2.33771,2.62278 -3.0866,7.00166 -1.68838,9.8722 0.52678,1.08147 4.05743,0.92198 6.31303,-0.28518 z m 108.74918,-3.29126 c 0.34267,-4.16352 -1.89962,-8.67356 -4.31229,-8.67356 -2.18368,0 -4.78366,5.74416 -4.00472,8.84769 0.81079,3.23044 2.24359,4.24901 5.50209,3.91136 2.12076,-0.21975 2.54777,-0.83951 2.81492,-4.08549 z m -87.83023,-1.42356 c 0.008,-0.6875 -0.43469,-1.25 -0.98469,-1.25 -0.55,0 -0.99311,1.2375 -0.98469,2.75 0.0119,2.14294 0.22931,2.41887 0.98469,1.25 0.53316,-0.825 0.97627,-2.0625 0.98469,-2.75 z m 63.01531,1.80902 c 0,-1.06754 -0.45,-2.2191 -1,-2.55902 -0.56716,-0.35052 -1,0.48962 -1,1.94098 0,1.40746 0.45,2.55902 1,2.55902 0.55,0 1,-0.87344 1,-1.94098 z m -102,-2.21463 c 0,-2.17231 -5.09832,-7.84439 -7.05089,-7.84439 -2.78953,0 -2.43177,1.19622 1.59903,5.3466 3.61809,3.72543 5.45186,4.56558 5.45186,2.49779 z m 143.4652,-1.94798 c 3.64704,-3.20214 4.61007,-5.89641 2.1076,-5.89641 -1.39893,0 -7.5728,6.70791 -7.5728,8.22784 0,1.55694 2.01619,0.69684 5.4652,-2.33143 z m -138.4652,-2.60111 c 0,-0.72734 0.5625,-2.23626 1.25,-3.35316 1.0873,-1.7664 0.9247,-2.27776 -1.24926,-3.92875 -2.45947,-1.867809 -2.5108,-1.866872 -3.22316,0.0588 -0.39814,1.07628 -1.89681,2.40281 -3.33039,2.94786 l -2.60649,0.99098 3.25695,4.11224 c 3.02362,3.81763 3.35171,3.98264 4.57965,2.30334 0.72749,-0.99487 1.3227,-2.40397 1.3227,-3.13131 z m 137,-3.21106 c 0,-0.51983 -0.99405,-1.08894 -2.20901,-1.26469 -1.35238,-0.19563 -2.42292,-1.23244 -2.76064,-2.67366 -0.54998,-2.347016 -0.5588,-2.348312 -2.92792,-0.429913 -2.50075,2.024973 -2.50048,2.030443 0.5428,11.284023 0.3679,1.11868 1.36545,0.55043 3.92404,-2.23531 1.8869,-2.05443 3.43073,-4.16063 3.43073,-4.68045 z m -69.52536,3.94223 c 2.17539,-2.27062 2.8697,-3.98446 2.9371,-7.25 0.0804,-3.893429 -0.13566,-4.285368 -2.41174,-4.375817 -2.41334,-0.0959 -2.48792,0.08961 -2.15156,5.351557 0.32751,5.12357 -0.91051,8.51905 -2.51949,6.91008 -0.3874,-0.38741 -0.89899,-3.39491 -1.13685,-6.68334 -0.36395,-5.031479 -0.73037,-5.97895 -2.31229,-5.97895 -3.50676,0 -2.29458,8.43703 1.90368,13.25 2.0249,2.3214 2.36493,2.2483 5.69115,-1.22353 z m -43.88624,-1.77141 c -1.07549,-1.07549 -1.64645,0.43075 -0.89148,2.35181 0.7082,1.80207 0.76169,1.80519 1.11193,0.0649 0.20237,-1.00555 0.10317,-2.09305 -0.22045,-2.41667 z m 6.23115,1.49494 c -0.17575,-1.2375 -0.99455,-2.25 -1.81955,-2.25 -0.825,0 -1.6438,1.0125 -1.81955,2.25 -0.24594,1.73169 0.17321,2.25 1.81955,2.25 1.64634,0 2.06549,-0.51831 1.81955,-2.25 z m 72.73976,1.15404 c 1.05677,-1.7099 -2.27751,-4.58584 -3.68495,-3.1784 -0.62696,0.62696 -0.8693,1.84517 -0.53853,2.70714 0.69209,1.80355 3.22538,2.08621 4.22348,0.47126 z m 3.1238,-2.09154 c -0.31922,-0.79773 -0.55618,-0.56078 -0.60416,0.60417 -0.0434,1.05416 0.19292,1.64479 0.52522,1.3125 0.33229,-0.3323 0.36781,-1.1948 0.0789,-1.91667 z m -89.54389,-5.84577 c -2.78888,-2.32337 -4.13922,-2.502817 -4.13922,-0.55006 0,1.57906 1.49968,2.40259 4.5,2.47111 1.87139,0.0427 1.84818,-0.0808 -0.36078,-1.92105 z m 103.11078,0.90988 c 3.12515,0.17633 3.72513,-2.16078 1.37856,-5.3699 -1.30343,-1.782552 -1.44767,-1.730049 -2.90893,1.05887 -0.84562,1.613931 -1.91598,2.8273 -2.37856,2.69638 -1.48508,-0.42031 -4.34107,0.8388 -4.34107,1.91384 0,0.65024 1.03228,0.76036 2.75,0.29333 1.5125,-0.41122 3.9875,-0.67786 5.5,-0.59252 z m -108.25,-2.254165 c 0,-1.307656 -0.66754,-2.931566 -1.48343,-3.608691 -1.23202,-1.022487 -1.6608,-0.764608 -2.53002,1.521631 -0.57563,1.514021 -1.28465,3.137935 -1.57559,3.608695 -0.29095,0.47075 0.84756,0.85592 2.53002,0.85592 2.55428,0 3.05902,-0.3923 3.05902,-2.377555 z m -19.67879,-9.702999 c 0.62567,-6.414787 1.32195,-8.955168 2.92431,-10.669446 2.24679,-2.403721 7.31468,-3.069402 7.98806,-1.049254 0.3112,0.9336 0.56561,0.933184 1.14351,-0.0019 0.47216,-0.763974 -0.21429,-1.566676 -1.88202,-2.200746 -3.44166,-1.308491 -7.49507,-1.275561 -7.49507,0.06092 0,0.582459 -0.45,0.780902 -1,0.440983 -0.55,-0.339919 -1,-4.191476 -1,-8.559017 0,-4.41509 -0.4269,-7.940983 -0.96146,-7.940983 -1.04538,0 -2.98491,6.265015 -3.12945,10.108691 -0.48032,12.772093 -0.85321,16.884378 -1.8031,19.884707 -1.466,4.630521 -1.40209,5.567644 0.51008,7.479816 2.81163,2.811626 3.85797,1.131795 4.70514,-7.553768 z m 150.47879,7.880554 c 1.50398,-1.503981 1.5591,-7.260491 0.0957,-9.99487 -0.60736,-1.134863 -1.19988,-6.639785 -1.3167,-12.23316 -0.11682,-5.593375 -0.61974,-10.822767 -1.11759,-11.620871 -0.49785,-0.798105 -0.99657,-2.054833 -1.10826,-2.79273 -0.45283,-2.99147 -1.12194,-1.959074 -1.73743,2.68075 -0.35794,2.698261 -0.36937,5.639299 -0.0254,6.535641 0.34396,0.896341 0.33331,2.793419 -0.0237,4.215726 -0.5273,2.10092 -0.91621,2.364292 -2.07327,1.404023 -0.91316,-0.757858 -2.87194,-0.937399 -5.45879,-0.500352 -5.14921,0.869953 -5.31556,2.487345 -0.18505,1.799199 3.54685,-0.475733 4.01862,-0.242743 6,2.96319 1.66175,2.688779 2.15046,5.06243 2.15046,10.444821 0,3.830915 0.3,7.2653 0.66667,7.631966 1.02424,1.024249 2.8056,0.794396 4.13333,-0.533333 z m -82.11079,-5.432466 c 0.34454,-0.897856 0.16064,-2.378312 -0.40866,-3.289903 -1.55223,-2.485522 -2.55373,-11.501193 -1.78382,-16.05825 l 0.67907,-4.019381 h 6.4121 6.4121 v 7.532119 c 0,4.501506 -0.61615,9.006769 -1.53134,11.197134 -1.68734,4.038365 -1.33814,6.270747 0.9809,6.270747 2.04362,0 2.63005,-2.882407 2.85767,-14.046108 0.18208,-8.929464 -1.27078,-15.953892 -3.29972,-15.953892 -0.41242,0 -1.04125,-2.196713 -1.39741,-4.881584 -1.04899,-7.907623 -3.60346,-15.525058 -4.80375,-14.324769 -1.33619,1.336194 -4.9497,16.30508 -4.33468,17.956353 0.25606,0.6875 0.007,1.25 -0.55408,1.25 -3.15106,0 -4.90251,13.535053 -3.28167,25.360429 0.64756,4.724465 2.78559,6.310657 4.05329,3.007105 z m 6.81079,-1.367534 c 0,-0.825 -1.0125,-1.643798 -2.25,-1.819551 -1.7317,-0.24594 -2.25,0.173208 -2.25,1.819551 0,1.646343 0.5183,2.065491 2.25,1.819551 1.2375,-0.175753 2.25,-0.994551 2.25,-1.819551 z m -62.97608,-2.075361 c 0.74935,-2.360988 0.11357,-3.436663 -1.45739,-2.465758 -1.31159,0.810608 -1.4216,4.541119 -0.13392,4.541119 0.51294,0 1.22903,-0.933912 1.59131,-2.075361 z M -76.50031,68.49297 c 0,-1.375 -0.45,-2.5 -1,-2.5 -1.11717,0 -1.3707,3.295963 -0.33333,4.333333 1.10234,1.102341 1.33333,0.784727 1.33333,-1.833333 z m -59.95403,-9.25 c -0.44388,-3.861789 -0.94149,-4.80645 -2.66116,-5.051885 -1.73855,-0.24813 -2.3069,0.453384 -3.19181,3.939648 -1.31721,5.189416 -0.95431,5.862237 3.16198,5.862237 h 3.23696 z m -20.35298,-9.980968 c -0.25354,-0.972968 -0.47766,-0.419032 -0.49804,1.230968 -0.0204,1.65 0.18706,2.446064 0.46099,1.769032 0.27392,-0.677033 0.29059,-2.027033 0.037,-3 z m -2.7083,-1.019032 c -0.008,-2.0625 -0.45153,-4.425 -0.98469,-5.25 -0.70439,-1.089966 -0.97356,-1.142172 -0.98469,-0.190983 -0.008,0.719959 -0.46531,1.030902 -1.01531,0.690983 -0.55,-0.339919 -1,0.138624 -1,1.063428 0,1.38125 0.26781,1.459196 1.5,0.436572 1.77808,-1.475676 2.03488,0.06512 0.3,1.8 -0.93333,0.933333 -0.91836,1.2 0.0674,1.2 0.81231,0 1.03946,0.718131 0.63261,2 -0.36414,1.147311 -0.1797,2 0.43261,2 0.58707,0 1.0605,-1.6875 1.05208,-3.75 z m 37.67759,0.5 c -0.27741,-0.6875 -0.50439,-0.125 -0.50439,1.25 0,1.375 0.22698,1.9375 0.50439,1.25 0.27741,-0.6875 0.27741,-1.8125 0,-2.5 z m 4.84943,0.142555 c -0.5689,-4.49524 -1.51171,-4.844009 -1.51171,-0.559222 0,2.016667 0.42862,3.666667 0.95249,3.666667 0.52387,0 0.77552,-1.39835 0.55922,-3.107445 z m -85.8286,-0.08006 c -0.31922,-0.797733 -0.55618,-0.560776 -0.60416,0.604167 -0.0434,1.054166 0.19293,1.644791 0.52522,1.3125 0.33229,-0.332292 0.36782,-1.194792 0.0789,-1.916667 z m 86.95677,-5.60119 c -2.29061,-2.290614 -3.12902,-0.805448 -0.96926,1.716965 1.05593,1.233242 1.97003,1.649766 2.18767,0.996846 0.20562,-0.616852 -0.34266,-1.838067 -1.21841,-2.713811 z m -85.56093,-0.02033 c 0.0486,-1.041168 0.27277,-1.21063 0.58333,-0.440983 0.86797,2.151054 2.33772,1.365165 2.33772,-1.25 0,-1.528868 -0.56901,-2.5 -1.46482,-2.5 -1.62197,0 -3.53518,2.972915 -3.53518,5.493276 0,2.132712 1.97638,0.894671 2.07895,-1.302293 z m 125.53152,-2.763709 c -0.94153,-2.453589 -3.61047,-1.660607 -3.61047,1.072726 0,2.615165 1.46975,3.401054 2.33772,1.25 0.27741,-0.6875 0.60119,-0.125 0.71951,1.25 0.21229,2.466981 0.22098,2.469323 0.65803,0.177274 0.2436,-1.277499 0.19644,-2.964999 -0.10479,-3.75 z m -50.01047,1.972726 c -0.35589,-0.927441 -0.87208,-1.461256 -1.14708,-1.186256 -0.275,0.275 -0.20881,1.258815 0.14708,2.186256 0.35589,0.927441 0.87208,1.461256 1.14708,1.186256 0.275,-0.275 0.20881,-1.258815 -0.14708,-2.186256 z m -25.21844,0.04806 c 0.34149,-0.889923 0.17385,-1.29132 -0.39301,-0.940981 -0.5437,0.336025 -0.98855,1.034397 -0.98855,1.551938 0,1.438432 0.71677,1.121462 1.38156,-0.610955 z"
       id="path4071"
       inkscape:connector-curvature="0" />
  </g>
</svg>
